Patient4_TMGait_0pt5_02_right_43_GRF.mot
version=1
nRows=58
nColumns=19
inDegrees=no
endheader
time	F1x	F1y	F1z	M1x	M1y	M1z	F2x	F2y	F2z	M2x	M2y	M2z	EC1x	EC1y	EC1z	EC2x	EC2y	EC2z
56.13	17.1444	753.3118	71.1351	-277.5249	-55.7823	689.4559	-6.8219	1.4732	-9.5405	3.6649	12.1682	1.5841	-0.0592	0.0182	-0.0073	-0.0462	0.0165	0.9585
56.1426	15.6919	757.5657	68.7382	-278.5158	-54.1447	687.2508	-4.8008	2.1698	-6.4991	2.9387	8.3627	2.3904	-0.0592	0.0182	-0.0073	-0.0462	0.0165	0.9585
56.1551	15.0445	761.8926	66.8945	-279.5715	-52.6122	685.1675	-3.0616	2.768	-3.8781	2.3167	5.096	3.0724	-0.0592	0.0182	-0.0073	-0.0462	0.0165	0.9585
56.1677	15.2133	765.9277	65.6299	-280.5893	-51.1934	683.1912	-1.7079	3.2452	-1.8541	1.8469	2.5822	3.6017	-0.0592	0.0182	-0.0073	-0.0462	0.0165	0.9585
56.1803	16.017	769.3422	64.8566	-281.4524	-49.8815	681.1682	-0.7674	3.6047	-0.44112	1.5326	0.83589	3.9983	-0.0592	0.0182	-0.0073	-0.0462	0.0165	0.9585
56.1929	17.1869	771.8836	64.4156	-282.0573	-48.653	678.9253	-0.18224	3.8276	0.43858	1.3419	-0.24969	4.2409	-0.0592	0.0182	-0.0073	-0.0462	0.0165	0.9585
56.2054	18.4728	773.3988	64.1791	-282.3303	-47.511	676.3073	0.098827	3.8966	0.91043	1.2271	-0.82547	4.321	-0.0592	0.0182	-0.0073	-0.0462	0.0165	0.9585
56.218	19.6714	773.8459	64.015	-282.2368	-46.4362	673.2257	0.16049	3.7639	1.0996	1.1292	-1.0462	4.1714	-0.0592	0.0182	-0.0073	-0.0462	0.0165	0.9585
56.2306	20.6752	773.2392	63.8603	-281.7626	-45.436	669.6252	0.063127	3.3546	1.1156	0.98406	-1.0434	3.7193	-0.0592	0.0182	-0.0073	-0.0462	0.0165	0.9585
56.2431	21.4565	771.6113	63.6693	-280.9021	-44.4974	665.4702	-0.12731	2.5622	1.045	0.72375	-0.92496	2.8638	-0.0592	0.0182	-0.0073	-0.0462	0.0165	0.9585
56.2557	22.0553	768.9738	63.4412	-279.649	-43.6189	660.7037	-0.35901	1.2739	0.95162	0.2851	-0.77087	1.4954	-0.0592	0.0182	-0.0073	-0.0462	0.0165	0.9585
56.2683	22.5373	765.3204	63.1703	-277.9975	-42.7833	655.2663	-0.58821	-0.61352	0.87506	-0.38317	-0.63386	-0.48994	-0.0592	0.0182	-0.0073	-0.0462	0.0165	0.9585
56.2809	22.9733	760.6214	62.849	-275.9369	-41.9728	649.1003	-0.7519	-3.1426	0.83522	-1.3029	-0.55469	-3.1413	-0.0592	0.0182	-0.0073	-0.0462	0.0165	0.9585
56.2934	23.4091	754.7974	62.4464	-273.4437	-41.1547	642.1162	-0.79325	-6.2115	0.83065	-2.4393	-0.55484	-6.3465	-0.0592	0.0182	-0.0073	-0.0462	0.0165	0.9585
56.306	23.8662	747.7521	61.9313	-270.4902	-40.2983	634.2312	-0.6117	-9.5058	0.84924	-3.6722	-0.65975	-9.7931	-0.0592	0.0182	-0.0073	-0.0462	0.0165	0.9585
56.3186	24.3909	739.4328	61.2723	-267.0661	-39.3588	625.4055	-0.10578	-12.3623	0.85327	-4.7486	-0.86919	-12.7981	-0.0592	0.0182	-0.0073	-0.0462	0.0165	0.9585
56.3311	25.044	729.9362	60.449	-263.2116	-38.2984	615.7344	0.86489	-13.6773	0.7902	-5.2445	-1.1757	-14.2374	-0.0592	0.0182	-0.0073	-0.0462	0.0165	0.9585
56.3437	25.906	719.5255	59.4714	-259.0211	-37.0929	605.4265	2.4177	-11.7838	0.58235	-4.5238	-1.5387	-12.3932	-0.0592	0.0182	-0.0073	-0.0462	0.0165	0.9585
56.3563	27.0765	708.5413	58.3689	-254.6113	-35.7265	594.733	4.6489	-4.4318	0.14306	-1.7276	-1.8949	-4.9546	-0.0592	0.0182	-0.0073	-0.0462	0.0165	0.9585
56.3689	28.6193	697.2085	57.1885	-250.0578	-34.2079	583.8223	7.5365	11.1512	-0.62574	4.1978	-2.1238	10.9564	-0.0592	0.0182	-0.0073	-0.0462	0.0165	0.9585
56.3814	30.5507	685.4369	55.9475	-245.3284	-32.5427	572.6105	10.8804	37.9652	-1.8015	14.3925	-2.0491	38.4552	-0.0592	0.0182	-0.0073	-0.0462	0.0165	0.9585
56.394	32.8114	672.6637	54.6141	-240.2316	-30.7198	560.6433	14.1884	78.653	-3.4313	29.8557	-1.4138	80.302	-0.0592	0.0182	-0.0073	-0.0462	0.0165	0.9585
56.4066	35.2699	657.8115	53.0668	-234.4042	-28.681	547.0524	16.5615	134.4874	-5.4649	51.0607	0.085588	137.8766	-0.0592	0.0182	-0.0073	-0.0462	0.0165	0.9585
56.4191	37.6933	639.3771	51.1305	-227.343	-26.3551	530.6359	16.5798	203.8534	-7.7159	77.3788	2.79	209.6169	-0.0592	0.0182	-0.0073	-0.0462	0.0165	0.9585
56.4317	39.8192	615.7174	48.5985	-218.5019	-23.6619	510.0801	12.4324	280.4429	-9.8317	106.3986	6.9703	289.1752	-0.0592	0.0182	-0.0073	-0.0462	0.0165	0.9585
56.4443	41.3657	585.5427	45.3354	-207.4598	-20.5923	484.3607	3.9481	353.4371	-11.7348	133.9907	12.529	365.5507	-0.0592	0.0182	-0.0073	-0.0462	0.0165	0.9585
56.4569	42.1625	548.5621	41.3703	-194.1338	-17.2351	453.2204	-6.3503	413.2471	-14.1565	156.4433	19.2057	428.776	-0.0592	0.0182	-0.0073	-0.0462	0.0165	0.9585
56.4694	42.0872	505.6474	36.9688	-178.8131	-13.8332	417.3611	-16.5722	456.5707	-17.0876	172.4501	26.2508	475.3046	-0.0592	0.0182	-0.0073	-0.0462	0.0165	0.9585
56.482	41.1208	458.2931	32.5302	-161.9866	-10.7058	377.9936	-25.6377	485.383	-20.4863	182.7602	33.2067	507.0299	-0.0592	0.0182	-0.0073	-0.0462	0.0165	0.9585
56.4946	39.312	408.2774	28.3137	-144.2442	-8.0374	336.5697	-33.4553	504.0807	-23.9332	189.0952	39.6292	528.4576	-0.0592	0.0182	-0.0073	-0.0462	0.0165	0.9585
56.5071	36.7322	357.4695	24.3884	-126.2227	-5.8665	294.6004	-40.3882	517.4302	-27.1874	193.342	45.437	544.4608	-0.0592	0.0182	-0.0073	-0.0462	0.0165	0.9585
56.5197	33.4186	307.7494	20.6865	-108.5706	-4.1298	253.6291	-46.5704	529.9832	-30.0354	197.2911	50.5156	559.5448	-0.0592	0.0182	-0.0073	-0.0462	0.0165	0.9585
56.5323	29.4441	260.7951	17.1643	-91.8778	-2.7747	215.0188	-51.9224	545.2159	-32.7353	202.2806	55.1305	577.0244	-0.0592	0.0182	-0.0073	-0.0462	0.0165	0.9585
56.5449	24.9063	217.9854	13.8309	-76.6348	-1.7716	179.8909	-56.2949	564.7262	-35.5116	208.9293	59.4766	598.2718	-0.0592	0.0182	-0.0073	-0.0462	0.0165	0.9585
56.5574	20.0202	180.2252	10.769	-63.1724	-1.1135	148.9464	-59.6284	588.3903	-38.7337	217.1813	63.9021	623.0093	-0.0592	0.0182	-0.0073	-0.0462	0.0165	0.9585
56.57	15.0238	147.8648	8.0572	-51.6303	-0.77252	122.4307	-61.935	615.002	-42.4272	226.5807	68.4402	649.9	-0.0592	0.0182	-0.0073	-0.0462	0.0165	0.9585
56.5826	10.1418	120.727	5.7679	-41.9609	-0.72333	100.1583	-63.3212	642.946	-46.6016	236.5139	73.1251	677.2921	-0.0592	0.0182	-0.0073	-0.0462	0.0165	0.9585
56.5951	5.5236	98.2228	3.9268	-33.968	-0.92803	81.6409	-63.7972	670.6015	-50.9967	246.3812	77.6928	703.5505	-0.0592	0.0182	-0.0073	-0.0462	0.0165	0.9585
56.6077	1.2733	79.5392	2.526	-27.3695	-1.341	66.2228	-63.3861	696.5208	-55.3794	255.6437	81.8992	727.2965	-0.0592	0.0182	-0.0073	-0.0462	0.0165	0.9585
56.6203	-2.4968	63.8815	1.5237	-21.8799	-1.8891	53.2684	-62.1007	719.3674	-59.4346	263.8197	85.422	747.2629	-0.0592	0.0182	-0.0073	-0.0462	0.0165	0.9585
56.6329	-5.6081	50.5657	0.8574	-17.2486	-2.4619	42.2438	-59.9942	738.0557	-63.0036	270.5111	88.1111	762.4764	-0.0592	0.0182	-0.0073	-0.0462	0.0165	0.9585
56.6454	-7.7776	39.0537	0.44958	-13.2784	-2.9042	32.714	-57.1217	751.9104	-65.955	275.4742	89.8573	772.3705	-0.0592	0.0182	-0.0073	-0.0462	0.0165	0.9585
56.658	-8.7507	29.039	0.21923	-9.8507	-3.0691	24.4418	-53.6	760.7775	-68.3006	278.6552	90.716	776.8983	-0.0592	0.0182	-0.0073	-0.0462	0.0165	0.9585
56.6706	-8.3852	20.404	0.098263	-6.9174	-2.8623	17.3149	-49.5745	765.0953	-70.0355	280.2185	90.7469	776.5903	-0.0592	0.0182	-0.0073	-0.0462	0.0165	0.9585
56.6831	-6.969	13.2874	0.037718	-4.5172	-2.3462	11.4482	-45.2365	765.7747	-71.1947	280.4985	90.0675	772.4447	-0.0592	0.0182	-0.0073	-0.0462	0.0165	0.9585
56.6957	-5.153	7.9477	0.008089	-2.7277	-1.7123	7.0425	-40.8448	764.0291	-71.7865	279.9415	88.7858	765.7586	-0.0592	0.0182	-0.0073	-0.0462	0.0165	0.9585
56.7083	-3.3721	4.3041	0.016897	-1.5152	-1.1187	4.0424	-36.6621	761.1819	-71.8669	279.0296	87.0579	757.9251	-0.0592	0.0182	-0.0073	-0.0462	0.0165	0.9585
56.7209	-1.8603	2.1042	0.031439	-0.79063	-0.61897	2.2503	-32.9493	758.4934	-71.5068	278.2168	85.0474	750.2609	-0.0592	0.0182	-0.0073	-0.0462	0.0165	0.9585
56.7334	-0.6949	0.99299	0.063607	-0.43424	-0.25561	1.3492	-29.8805	756.8764	-70.8118	277.8303	82.9204	743.6977	-0.0592	0.0182	-0.0073	-0.0462	0.0165	0.9585
56.746	0.11671	0.63931	0.087995	-0.33261	-0.0078967	1.0724	-27.5327	756.8085	-69.8803	278.0368	80.7995	738.7276	-0.0592	0.0182	-0.0073	-0.0462	0.0165	0.9585
56.7586	0.64274	0.7599	0.12379	-0.38844	0.12561	1.1787	-25.8351	758.3323	-68.7796	278.8498	78.7306	735.3754	-0.0592	0.0182	-0.0073	-0.0462	0.0165	0.9585
56.7711	0.92201	1.159	0.15356	-0.53323	0.17587	1.5192	-24.6624	761.1913	-67.5419	280.1748	76.6989	733.361	-0.0592	0.0182	-0.0073	-0.0462	0.0165	0.9585
56.7837	1.0345	1.6631	0.18617	-0.70956	0.16329	1.9379	-23.8305	764.909	-66.1968	281.8333	74.6693	732.1763	-0.0592	0.0182	-0.0073	-0.0462	0.0165	0.9585
56.7963	1.0271	2.1707	0.21066	-0.8825	0.11705	2.3695	-23.1847	768.8707	-64.7823	283.5915	72.6229	731.2145	-0.0592	0.0182	-0.0073	-0.0462	0.0165	0.9585
56.8089	0.94456	2.5821	0.23383	-1.0188	0.04876	2.7102	-22.5929	772.3735	-63.3277	285.1868	70.5423	729.8012	-0.0592	0.0182	-0.0073	-0.0462	0.0165	0.9585
56.8214	0.80606	2.8187	0.24944	-1.0898	-0.026673	2.8968	-21.9342	774.7651	-61.8506	286.3744	68.4064	727.3453	-0.0592	0.0182	-0.0073	-0.0462	0.0165	0.9585
56.834	0.63846	2.7975	0.26237	-1.0655	-0.10148	2.8471	-21.0963	775.4642	-60.3417	286.9385	66.1733	723.3276	-0.0592	0.0182	-0.0073	-0.0462	0.0165	0.9585
56.8466	0.44889	2.4241	0.27145	-0.91216	-0.17233	2.459	-20.0061	774.0298	-58.7782	286.7195	63.799	717.3695	-0.0592	0.0182	-0.0073	-0.0462	0.0165	0.9585
